<?xml version="1.0" encoding="UTF-8"?>
<svg id="pictogram" xmlns="http://www.w3.org/2000/svg" version="1.1" viewBox="0 0 100 100" role="img" class="hc"
    aria-labelledby="title desc" lang="es" tabindex="0" focusable="true"
    data-case-id="req-001_v1.0.0_default-v1_01"
    data-vcsci-score="5.00"
    data-decision="accept"
    data-vcsci-certified="true"
    data-domain="home" data-intent="commissive"
    data-utterance="Voy a hacer mi cama"
    style="font-size:12px">

    <title id="title">Voy a hacer mi cama (commissive)</title>
    <desc id="desc">
        Una persona de pie al lado de una cama individual: estructura, colchón, almohada y sábana visibles.
        Significado deseado: acción "hacer" aplicada al objeto "cama"; rutina doméstica cotidiana.
        English: A person standing beside a single bed: frame, mattress, pillow and sheet visible.
        Intended meaning: action "make" applied to object "bed"; everyday domestic routine.
    </desc>

    <metadata id="vcsci-metadata">
        <vcsci:metadata xmlns:vcsci="https://vcsci.org/schema/v1">
        <![CDATA[
{
  "vcsci": {
    "version": "1.0.0",
    "case_id": "req-001_v1.0.0_default-v1_01",
    "phrase_id": "req-001",
    "chain_of_thought": {
      "1_input": {
        "phrase": {
          "spanish": "Voy a hacer mi cama",
          "english": "I'm going to make my bed",
          "domain": "Activities of Daily Living"
        },
        "semantic_analysis": {
          "speech_act": "commissive",
          "frame": "Arranging",
          "agent": "Speaker",
          "patient": "Bed",
          "nsm_explication": "I want to do something to this thing. I want to move parts of this thing. I want this thing to be good."
        },
        "style_profile_id": "default-v1",
        "pipeline_version": "v1.0.0"
      },
      "2_generation": {
        "model": "claude-opus-4-5-20251101",
        "timestamp": "2026-01-26T15:00:00Z",
        "parameters": {
          "temperature": 0.7,
          "visual_structure": "hierarchical",
          "composition": "medium_shot_elevated",
          "focal_point": "hands_smoothing_sheets"
        }
      },
      "3_evaluation": {
        "ratings": {
          "clarity": 5,
          "recognizability": 5,
          "semantic_transparency": 5,
          "pragmatic_fit": 5,
          "cultural_adequacy": 5,
          "cognitive_accessibility": 5
        },
        "vcsci_score": 5.0,
        "decision": "accept",
        "evaluator_role": "aac_expert",
        "evaluation_date": "2026-01-26",
        "compiled_evaluation": "VCSCI Score: 5.00/5.0 (Excelente). No necesita mejoras. Listo para uso inmediato. El pictograma tiene líneas nítidas y limpias, es instantáneamente reconocible, captura perfectamente el significado, es altamente práctico para uso en AAC, es perfectamente adecuado culturalmente, y es extremadamente simple y claro para procesamiento cognitivo.",
        "required_edits": [],
        "notes": "Pictogram canónico - ejemplo de mejor práctica para VCSCI."
      },
      "4_provenance": {
        "created_by": "PictoNet",
        "license": "CC BY 4.0",
        "version": "1.0-canonical",
        "created_at": "2026-01-26T15:00:00Z",
        "evaluated_at": "2026-01-26T15:30:00Z",
        "iteration": 1,
        "parent_case_id": null,
        "certification": {
          "status": "production_ready",
          "certified_by": "VCSCI v1.0.0",
          "certified_date": "2026-01-26"
        }
      }
    }
  }
}
        ]]>
        </vcsci:metadata>
    </metadata>

    <metadata id="mf-accessibility">
        {
        "schema": "https://pictos.net/schemas/pictogram-accessibility/v1",
        "utterance": {
        "text": "Voy a hacer mi cama",
        "speechAct": "commissive",
        "language": "es",
        "domain": "Activities of Daily Living"
        },
        "nsm": {
        "primes": ["WANT","DO","SOMETHING","THING","MOVE","PARTS","GOOD"],
        "gloss": "SOMEONE DO something to bed NOW so bed is good to sleep"
        },
        "concepts": [
        {"id": "bed", "role": "patient", "kind": "OBJECT"},
        {"id": "person", "role": "agent", "kind": "HUMAN"},
        {"id": "make", "role": "action", "kind": "VERB"}
        ],
        "accessibility": {
        "readingOrder": ["title","desc","g-person","g-bed"],
        "keyboard": {"tabStops": ["g-person","g-bed"]},
        "contrast": {"preferred": "AA", "strokeMin": 2},
        "motion": {"noMotionDefault": true}
        },
        "provenance": {
        "author": "PictoNet",
        "license": "CC BY 4.0",
        "version": "1.0-canonical"
        }
        }
    </metadata>

    <defs>
        <style>
            /* Base */
            .f,
            .k {
                stroke-linejoin: round;
                stroke-width: 1ex;
            }

            .f {
                fill: #fff;
                stroke: #000;
            }

            .k {
                fill: #000;
                stroke: #fff;
            }

            /* Alto contraste activado en el propio SVG */
            svg.hc .f {
                fill: #fff;
                stroke: #000;
                stroke-width: .4ex;
            }

            svg.hc .k {
                fill: #000;
                stroke: #fff;
                stroke-width: .3ex;
            }

            /* Alto contraste activado en el contenedor HTML padre */
            .hc svg .f {
                fill: #fff;
                stroke: #000;
                stroke-width: .4ex;
            }

            .hc svg .k {
                fill: #000;
                stroke: #fff;
                stroke-width: .3ex;
            }
        </style>
    </defs>

    <!-- BED (Patient) -->
    <g id="g-bed" role="group" class="hc f" tabindex="0" aria-label="Cama, el objeto de la acción" data-role="patient"
        data-concept="bed">
        <path id="bed_frame" d="M86.6,66.1l6.7,10.9v7.1h-5.1v5.1c0,.9-.7,1.6-1.6,1.6h-2.3c-.9,
      0-1.6-.7-1.6-1.6v-5.1h-38.2v5.1c0,.9-.7,1.6-1.6,1.6h-2.3c-.9,
      0-1.6-.7-1.6-1.6v-5.1h-5.1v-7.1l6.7-10.9v-18.5c0-1.3,1.1-2.4,
      2.4-2.4h41.3c1.3,0,2.4,1.1,2.4,2.4v18.5h-.1Z" aria-label="Estructura de la cama" />
        <path id="mattress" d="M85.9,78.6h-44.4c-3,0-5.4-2.4-5.4-5.4v-1.9c0-1.5.7-3,
      1.8-4l7.7-6.8c1-.9,2.3-1.4,3.6-1.4h29c1.3,0,2.6.5,3.6,1.4l7.7,
      6.8c1.2,1,1.8,2.5,1.8,4v1.9c0,3-2.4,5.4-5.4,5.4Z" aria-label="Colchón" />
        <path id="pillow" d="M52.2,53.5h22.4c2.3,0,4.1,1.8,4.1,4h0c0,2.2-1.8,4-4.1,
      4h-22.4c-2.3,0-4.1-1.8-4.1-4h0c0-2.2,1.8-4,4.1-4Z" aria-label="Almohada" />
        <path id="sheet" d="M50.6,39.6c2.1,1.3,15.3,5.5,15.3,5.5,0,0-1.3,9.6-3.9,
      12.5-6.3,7.1-17.2,8.3-20.7,10.2s-3.4,9.7.8,
      10.8c-7.6.3-6.9-8.9-4.2-11.3s7.9-6.7,10.7-11.7c4.1-7.4,2.3-13.8,2-16Z"
            aria-label="Sábana superior, para estirar y alisar" />
    </g>

    <!-- PERSON (Agent) -->
    <g id="g-person" role="group" class="hc k" tabindex="0" aria-label="Persona, el agente que hace la cama"
        data-role="agent" data-concept="person">
        <path id="arm" d="M29.9,37.5l4.2,7.8,6.7,3.7c1.1.6,1.5,2.1.7,3.2h0c-.6.8-1.7,
      1.1-2.6.7l-9.1-3.9-4.1-6.4" aria-label="Brazo extendido hacia la cama" />
        <path id="body" d="M29,90.5l-4.9.2-5-35.6-3,18.9-4.2,
      17.1h-5l4.3-19.7.6-19.4c.2-2.1.2-3.2.6-5,0,0,.8-3.7,2-6.9s3.5-7.2,
      5.2-9.3l2.3-2.7c2.4-2.8,6.7-3.1,9.5-.7l2.1,1.8,7.6,9.2c.8.9,1.8,1.6,
      3,2l10,3c1.4.4,2.2,2,1.6,3.4h0c-.5,1.1-1.7,1.8-2.9,
      1.5l-13.7-3.3-9.1-7.5-4.9,7.5,4,45.5h0Z" aria-label="Torso y piernas" />
        <circle id="head" cx="38.9" cy="19.9" r="5.5" aria-label="Cabeza" />
    </g>

    <!-- Hidden caption for environments that expose <desc> poorly -->
    <text x="-9999" y="-9999" aria-hidden="true">Voy a hacer mi cama</text>

</svg>
